<?xml version="1.0" encoding="UTF-8"?>
<svg xmlns="http://www.w3.org/2000/svg" xmlns:xlink="http://www.w3.org/1999/xlink" width="1920" height="1080" viewBox="0 0 1920 1080">
<defs>
<g>
<g id="glyph-0-0">
<path d="M 1.566406 0.0742188 C 1.382812 0.0742188 1.207031 0.0390625 1.039062 -0.0351562 C 0.871094 -0.105469 0.722656 -0.210938 0.59375 -0.347656 C 0.464844 -0.484375 0.359375 -0.648438 0.285156 -0.847656 C 0.207031 -1.042969 0.167969 -1.261719 0.167969 -1.507812 C 0.167969 -1.753906 0.207031 -1.980469 0.28125 -2.179688 C 0.355469 -2.378906 0.460938 -2.550781 0.59375 -2.695312 C 0.726562 -2.839844 0.882812 -2.949219 1.058594 -3.027344 C 1.238281 -3.105469 1.429688 -3.144531 1.636719 -3.144531 C 1.785156 -3.144531 1.921875 -3.128906 2.046875 -3.089844 C 2.167969 -3.050781 2.285156 -3 2.398438 -2.929688 L 2.488281 -3.078125 L 2.660156 -3.078125 L 2.679688 -1.980469 L 2.5 -1.980469 C 2.480469 -2.089844 2.445312 -2.203125 2.398438 -2.328125 C 2.351562 -2.453125 2.296875 -2.558594 2.234375 -2.648438 C 2.164062 -2.746094 2.082031 -2.824219 1.988281 -2.878906 C 1.894531 -2.933594 1.785156 -2.960938 1.660156 -2.960938 C 1.519531 -2.960938 1.390625 -2.929688 1.269531 -2.867188 C 1.148438 -2.804688 1.042969 -2.714844 0.957031 -2.59375 C 0.871094 -2.476562 0.808594 -2.328125 0.757812 -2.144531 C 0.710938 -1.964844 0.6875 -1.761719 0.6875 -1.539062 C 0.6875 -1.34375 0.710938 -1.160156 0.761719 -0.996094 C 0.8125 -0.832031 0.882812 -0.6875 0.976562 -0.566406 C 1.070312 -0.441406 1.179688 -0.34375 1.304688 -0.277344 C 1.429688 -0.207031 1.570312 -0.171875 1.726562 -0.171875 C 1.84375 -0.171875 1.953125 -0.191406 2.050781 -0.226562 C 2.148438 -0.261719 2.234375 -0.3125 2.308594 -0.375 C 2.378906 -0.4375 2.441406 -0.507812 2.496094 -0.589844 C 2.550781 -0.671875 2.597656 -0.757812 2.632812 -0.855469 L 2.792969 -0.777344 C 2.671875 -0.472656 2.503906 -0.253906 2.300781 -0.121094 C 2.09375 0.0078125 1.851562 0.0742188 1.566406 0.0742188 Z "/>
</g>
<g id="glyph-0-1">
<path d="M 2.570312 0 L 1.53125 0 L 1.53125 -0.144531 C 1.5625 -0.144531 1.597656 -0.148438 1.632812 -0.152344 C 1.667969 -0.15625 1.699219 -0.160156 1.726562 -0.167969 C 1.765625 -0.183594 1.796875 -0.203125 1.820312 -0.238281 C 1.839844 -0.269531 1.851562 -0.3125 1.851562 -0.363281 L 1.851562 -1.488281 L 0.867188 -0.421875 L 0.867188 -0.386719 C 0.867188 -0.335938 0.875 -0.296875 0.894531 -0.265625 C 0.917969 -0.234375 0.945312 -0.207031 0.988281 -0.191406 C 1.019531 -0.175781 1.054688 -0.164062 1.089844 -0.160156 C 1.125 -0.152344 1.160156 -0.144531 1.199219 -0.144531 L 1.199219 0 L 0.160156 0 L 0.160156 -0.144531 C 0.195312 -0.144531 0.226562 -0.148438 0.261719 -0.152344 C 0.300781 -0.15625 0.328125 -0.160156 0.355469 -0.167969 C 0.394531 -0.183594 0.425781 -0.203125 0.445312 -0.238281 C 0.464844 -0.269531 0.476562 -0.3125 0.476562 -0.363281 L 0.476562 -1.753906 C 0.476562 -1.800781 0.464844 -1.839844 0.445312 -1.875 C 0.425781 -1.90625 0.394531 -1.929688 0.355469 -1.949219 C 0.316406 -1.964844 0.28125 -1.976562 0.242188 -1.984375 C 0.207031 -1.988281 0.175781 -1.992188 0.144531 -1.996094 L 0.144531 -2.140625 L 1.183594 -2.140625 L 1.183594 -1.996094 C 1.144531 -1.992188 1.105469 -1.988281 1.074219 -1.984375 C 1.042969 -1.980469 1.015625 -1.976562 0.988281 -1.96875 C 0.949219 -1.957031 0.917969 -1.9375 0.898438 -1.902344 C 0.878906 -1.867188 0.871094 -1.824219 0.871094 -1.773438 L 0.871094 -0.667969 L 1.855469 -1.734375 C 1.855469 -1.800781 1.84375 -1.847656 1.824219 -1.878906 C 1.804688 -1.90625 1.773438 -1.929688 1.734375 -1.949219 C 1.695312 -1.964844 1.660156 -1.976562 1.621094 -1.984375 C 1.585938 -1.988281 1.550781 -1.992188 1.519531 -1.996094 L 1.519531 -2.140625 L 2.558594 -2.140625 L 2.558594 -1.996094 C 2.519531 -1.992188 2.480469 -1.988281 2.449219 -1.984375 C 2.417969 -1.980469 2.390625 -1.976562 2.363281 -1.96875 C 2.324219 -1.957031 2.292969 -1.9375 2.273438 -1.902344 C 2.253906 -1.867188 2.246094 -1.824219 2.246094 -1.773438 L 2.246094 -0.386719 C 2.246094 -0.335938 2.253906 -0.292969 2.273438 -0.261719 C 2.289062 -0.234375 2.320312 -0.207031 2.359375 -0.191406 C 2.390625 -0.175781 2.425781 -0.164062 2.460938 -0.160156 C 2.496094 -0.152344 2.53125 -0.144531 2.570312 -0.144531 Z "/>
</g>
<g id="glyph-0-2">
<path d="M 3.027344 0 L 1.980469 0 L 1.980469 -0.144531 C 2.011719 -0.144531 2.046875 -0.148438 2.082031 -0.152344 C 2.117188 -0.15625 2.148438 -0.160156 2.175781 -0.167969 C 2.214844 -0.183594 2.25 -0.207031 2.269531 -0.238281 C 2.292969 -0.273438 2.304688 -0.316406 2.304688 -0.363281 L 2.304688 -1.914062 L 2.253906 -1.914062 L 1.527344 -0.0351562 L 1.394531 -0.0351562 L 0.710938 -1.949219 L 0.664062 -1.949219 L 0.664062 -0.453125 C 0.664062 -0.378906 0.675781 -0.320312 0.695312 -0.277344 C 0.714844 -0.234375 0.746094 -0.207031 0.785156 -0.191406 C 0.816406 -0.175781 0.847656 -0.164062 0.882812 -0.160156 C 0.917969 -0.152344 0.957031 -0.144531 0.992188 -0.144531 L 0.992188 0 L 0.160156 0 L 0.160156 -0.144531 C 0.195312 -0.144531 0.226562 -0.148438 0.261719 -0.152344 C 0.300781 -0.15625 0.328125 -0.160156 0.355469 -0.167969 C 0.398438 -0.183594 0.429688 -0.210938 0.449219 -0.253906 C 0.464844 -0.296875 0.476562 -0.355469 0.476562 -0.429688 L 0.476562 -1.730469 C 0.476562 -1.789062 0.464844 -1.832031 0.445312 -1.871094 C 0.425781 -1.90625 0.394531 -1.929688 0.355469 -1.949219 C 0.316406 -1.964844 0.28125 -1.976562 0.242188 -1.984375 C 0.207031 -1.988281 0.175781 -1.992188 0.144531 -1.996094 L 0.144531 -2.140625 L 1.035156 -2.140625 L 1.570312 -0.605469 L 2.042969 -1.878906 C 2.058594 -1.917969 2.074219 -1.96875 2.089844 -2.027344 C 2.109375 -2.085938 2.117188 -2.121094 2.117188 -2.140625 L 3.019531 -2.140625 L 3.019531 -1.996094 C 2.976562 -1.992188 2.941406 -1.988281 2.910156 -1.984375 C 2.878906 -1.980469 2.847656 -1.976562 2.824219 -1.96875 C 2.78125 -1.957031 2.753906 -1.9375 2.734375 -1.902344 C 2.714844 -1.867188 2.703125 -1.824219 2.703125 -1.773438 L 2.703125 -0.386719 C 2.703125 -0.335938 2.710938 -0.292969 2.730469 -0.261719 C 2.746094 -0.234375 2.777344 -0.207031 2.820312 -0.191406 C 2.847656 -0.175781 2.882812 -0.164062 2.917969 -0.160156 C 2.953125 -0.152344 2.988281 -0.144531 3.027344 -0.144531 Z "/>
</g>
<g id="glyph-0-3">
<path d="M 2.058594 -0.503906 C 1.96875 -0.332031 1.847656 -0.195312 1.695312 -0.09375 C 1.546875 0.00390625 1.375 0.0546875 1.179688 0.0546875 C 1.007812 0.0546875 0.855469 0.0273438 0.726562 -0.0351562 C 0.597656 -0.09375 0.488281 -0.179688 0.40625 -0.28125 C 0.320312 -0.386719 0.257812 -0.507812 0.21875 -0.648438 C 0.175781 -0.785156 0.15625 -0.933594 0.15625 -1.085938 C 0.15625 -1.226562 0.179688 -1.363281 0.222656 -1.496094 C 0.265625 -1.628906 0.332031 -1.75 0.417969 -1.859375 C 0.5 -1.960938 0.601562 -2.042969 0.722656 -2.105469 C 0.847656 -2.167969 0.984375 -2.199219 1.136719 -2.199219 C 1.292969 -2.199219 1.425781 -2.175781 1.535156 -2.125 C 1.648438 -2.078125 1.738281 -2.011719 1.808594 -1.925781 C 1.875 -1.84375 1.921875 -1.75 1.957031 -1.636719 C 1.988281 -1.527344 2.003906 -1.410156 2.003906 -1.28125 L 2.003906 -1.136719 L 0.589844 -1.136719 C 0.589844 -0.996094 0.601562 -0.867188 0.628906 -0.753906 C 0.65625 -0.640625 0.699219 -0.539062 0.753906 -0.453125 C 0.8125 -0.367188 0.886719 -0.300781 0.976562 -0.253906 C 1.066406 -0.203125 1.175781 -0.179688 1.300781 -0.179688 C 1.429688 -0.179688 1.542969 -0.210938 1.636719 -0.269531 C 1.726562 -0.332031 1.820312 -0.441406 1.90625 -0.597656 L 2.058594 -0.503906 M 1.578125 -1.320312 C 1.578125 -1.398438 1.570312 -1.488281 1.558594 -1.578125 C 1.542969 -1.671875 1.519531 -1.75 1.492188 -1.808594 C 1.457031 -1.875 1.410156 -1.929688 1.355469 -1.972656 C 1.296875 -2.015625 1.222656 -2.035156 1.128906 -2.035156 C 0.980469 -2.035156 0.851562 -1.972656 0.75 -1.847656 C 0.652344 -1.71875 0.597656 -1.542969 0.589844 -1.320312 Z "/>
</g>
<g id="glyph-0-4">
<path d="M 2.042969 -1.453125 L 1.910156 -1.453125 C 1.898438 -1.496094 1.878906 -1.542969 1.855469 -1.597656 C 1.828125 -1.652344 1.800781 -1.703125 1.769531 -1.753906 C 1.738281 -1.808594 1.703125 -1.855469 1.664062 -1.894531 C 1.625 -1.9375 1.582031 -1.960938 1.539062 -1.964844 C 1.492188 -1.96875 1.445312 -1.972656 1.390625 -1.976562 C 1.332031 -1.976562 1.285156 -1.980469 1.246094 -1.980469 L 1.246094 -0.386719 C 1.246094 -0.335938 1.257812 -0.296875 1.277344 -0.265625 C 1.296875 -0.234375 1.328125 -0.207031 1.371094 -0.191406 C 1.402344 -0.175781 1.4375 -0.164062 1.476562 -0.160156 C 1.519531 -0.152344 1.558594 -0.144531 1.597656 -0.144531 L 1.597656 0 L 0.503906 0 L 0.503906 -0.144531 C 0.539062 -0.144531 0.578125 -0.148438 0.621094 -0.152344 C 0.664062 -0.15625 0.699219 -0.160156 0.722656 -0.167969 C 0.765625 -0.183594 0.796875 -0.203125 0.816406 -0.238281 C 0.835938 -0.269531 0.84375 -0.3125 0.84375 -0.363281 L 0.84375 -1.980469 C 0.796875 -1.976562 0.746094 -1.976562 0.6875 -1.972656 C 0.628906 -1.972656 0.585938 -1.96875 0.550781 -1.964844 C 0.511719 -1.964844 0.472656 -1.9375 0.429688 -1.894531 C 0.386719 -1.847656 0.351562 -1.800781 0.320312 -1.753906 C 0.289062 -1.703125 0.261719 -1.648438 0.234375 -1.589844 C 0.207031 -1.53125 0.191406 -1.484375 0.179688 -1.453125 L 0.046875 -1.453125 L 0.046875 -2.140625 L 2.042969 -2.140625 Z "/>
</g>
<g id="glyph-0-5">
<path d="M 2.113281 -1.886719 C 2.195312 -1.785156 2.261719 -1.667969 2.308594 -1.53125 C 2.355469 -1.398438 2.378906 -1.246094 2.378906 -1.074219 C 2.378906 -0.90625 2.351562 -0.75 2.296875 -0.609375 C 2.238281 -0.472656 2.164062 -0.351562 2.074219 -0.253906 C 1.976562 -0.152344 1.867188 -0.078125 1.75 -0.0234375 C 1.628906 0.03125 1.503906 0.0546875 1.371094 0.0546875 C 1.242188 0.0546875 1.136719 0.0429688 1.054688 0.0117188 C 0.972656 -0.015625 0.90625 -0.0507812 0.851562 -0.0898438 L 0.835938 -0.0898438 L 0.835938 0.554688 C 0.835938 0.605469 0.84375 0.652344 0.867188 0.683594 C 0.886719 0.71875 0.917969 0.746094 0.960938 0.761719 C 0.992188 0.773438 1.042969 0.789062 1.109375 0.800781 C 1.171875 0.8125 1.226562 0.820312 1.265625 0.820312 L 1.265625 0.964844 L 0.0703125 0.964844 L 0.0703125 0.820312 C 0.117188 0.816406 0.160156 0.8125 0.203125 0.808594 C 0.242188 0.804688 0.28125 0.796875 0.316406 0.789062 C 0.359375 0.773438 0.386719 0.746094 0.40625 0.710938 C 0.421875 0.675781 0.433594 0.632812 0.433594 0.582031 L 0.433594 -1.691406 C 0.433594 -1.734375 0.421875 -1.777344 0.398438 -1.820312 C 0.378906 -1.859375 0.347656 -1.890625 0.316406 -1.917969 C 0.289062 -1.933594 0.253906 -1.945312 0.207031 -1.957031 C 0.160156 -1.964844 0.113281 -1.972656 0.0703125 -1.976562 L 0.0703125 -2.117188 L 0.800781 -2.164062 L 0.832031 -2.140625 L 0.832031 -1.898438 L 0.847656 -1.894531 C 0.921875 -1.980469 1.015625 -2.054688 1.128906 -2.113281 C 1.238281 -2.167969 1.351562 -2.199219 1.460938 -2.199219 C 1.59375 -2.199219 1.714844 -2.171875 1.824219 -2.113281 C 1.9375 -2.058594 2.03125 -1.980469 2.113281 -1.886719 M 1.757812 -0.347656 C 1.816406 -0.4375 1.859375 -0.542969 1.886719 -0.660156 C 1.914062 -0.777344 1.925781 -0.910156 1.925781 -1.058594 C 1.925781 -1.164062 1.914062 -1.273438 1.890625 -1.382812 C 1.867188 -1.496094 1.832031 -1.59375 1.785156 -1.675781 C 1.734375 -1.757812 1.671875 -1.828125 1.589844 -1.878906 C 1.511719 -1.929688 1.414062 -1.957031 1.304688 -1.957031 C 1.195312 -1.957031 1.105469 -1.933594 1.03125 -1.886719 C 0.957031 -1.839844 0.890625 -1.785156 0.835938 -1.71875 L 0.835938 -0.453125 C 0.847656 -0.414062 0.871094 -0.375 0.898438 -0.332031 C 0.929688 -0.289062 0.960938 -0.253906 1 -0.222656 C 1.042969 -0.1875 1.089844 -0.15625 1.144531 -0.136719 C 1.195312 -0.113281 1.257812 -0.101562 1.335938 -0.101562 C 1.414062 -0.101562 1.492188 -0.125 1.570312 -0.164062 C 1.644531 -0.207031 1.707031 -0.269531 1.757812 -0.347656 Z "/>
</g>
<g id="glyph-0-6">
<path d="M 2.390625 0 L 1.34375 0 L 1.34375 -0.144531 C 1.375 -0.144531 1.410156 -0.148438 1.445312 -0.152344 C 1.480469 -0.15625 1.511719 -0.160156 1.539062 -0.167969 C 1.578125 -0.183594 1.609375 -0.203125 1.632812 -0.238281 C 1.652344 -0.269531 1.664062 -0.3125 1.664062 -0.363281 L 1.664062 -0.933594 C 1.546875 -0.882812 1.445312 -0.84375 1.355469 -0.8125 C 1.265625 -0.78125 1.15625 -0.765625 1.03125 -0.765625 C 0.804688 -0.765625 0.636719 -0.8125 0.53125 -0.902344 C 0.425781 -0.988281 0.371094 -1.132812 0.371094 -1.328125 L 0.371094 -1.753906 C 0.371094 -1.800781 0.359375 -1.84375 0.339844 -1.875 C 0.320312 -1.90625 0.289062 -1.929688 0.25 -1.949219 C 0.210938 -1.964844 0.175781 -1.976562 0.140625 -1.984375 C 0.105469 -1.988281 0.0703125 -1.992188 0.0429688 -1.996094 L 0.0429688 -2.140625 L 1.089844 -2.140625 L 1.089844 -1.996094 C 1.046875 -1.992188 1.011719 -1.988281 0.980469 -1.984375 C 0.949219 -1.980469 0.917969 -1.976562 0.894531 -1.96875 C 0.851562 -1.957031 0.820312 -1.9375 0.804688 -1.902344 C 0.785156 -1.867188 0.773438 -1.824219 0.773438 -1.777344 L 0.773438 -1.4375 C 0.773438 -1.285156 0.804688 -1.171875 0.867188 -1.105469 C 0.933594 -1.035156 1.039062 -1.003906 1.183594 -1.003906 C 1.25 -1.003906 1.324219 -1.007812 1.40625 -1.023438 C 1.492188 -1.035156 1.574219 -1.054688 1.664062 -1.085938 L 1.664062 -1.753906 C 1.664062 -1.800781 1.652344 -1.839844 1.632812 -1.875 C 1.613281 -1.90625 1.582031 -1.929688 1.542969 -1.949219 C 1.503906 -1.964844 1.46875 -1.976562 1.433594 -1.984375 C 1.398438 -1.988281 1.363281 -1.992188 1.335938 -1.996094 L 1.335938 -2.140625 L 2.382812 -2.140625 L 2.382812 -1.996094 C 2.339844 -1.992188 2.304688 -1.988281 2.273438 -1.984375 C 2.242188 -1.980469 2.214844 -1.976562 2.1875 -1.96875 C 2.148438 -1.957031 2.117188 -1.9375 2.097656 -1.902344 C 2.078125 -1.867188 2.066406 -1.824219 2.066406 -1.773438 L 2.066406 -0.386719 C 2.066406 -0.335938 2.078125 -0.292969 2.09375 -0.261719 C 2.113281 -0.234375 2.140625 -0.207031 2.183594 -0.191406 C 2.214844 -0.175781 2.246094 -0.164062 2.28125 -0.160156 C 2.316406 -0.152344 2.355469 -0.144531 2.390625 -0.144531 Z "/>
</g>
<g id="glyph-0-7">
<path d="M 2.554688 0 L 1.507812 0 L 1.507812 -0.144531 C 1.542969 -0.144531 1.574219 -0.148438 1.609375 -0.152344 C 1.648438 -0.15625 1.675781 -0.160156 1.703125 -0.167969 C 1.742188 -0.183594 1.773438 -0.203125 1.796875 -0.238281 C 1.820312 -0.269531 1.828125 -0.3125 1.828125 -0.363281 L 1.828125 -1.046875 L 0.875 -1.046875 L 0.875 -0.386719 C 0.875 -0.335938 0.886719 -0.296875 0.90625 -0.265625 C 0.925781 -0.234375 0.957031 -0.207031 1 -0.191406 C 1.027344 -0.175781 1.0625 -0.164062 1.097656 -0.160156 C 1.132812 -0.152344 1.167969 -0.144531 1.207031 -0.144531 L 1.207031 0 L 0.160156 0 L 0.160156 -0.144531 C 0.195312 -0.144531 0.226562 -0.148438 0.261719 -0.152344 C 0.300781 -0.15625 0.328125 -0.160156 0.355469 -0.167969 C 0.394531 -0.183594 0.425781 -0.203125 0.445312 -0.238281 C 0.464844 -0.269531 0.476562 -0.3125 0.476562 -0.363281 L 0.476562 -1.753906 C 0.476562 -1.800781 0.464844 -1.839844 0.445312 -1.875 C 0.425781 -1.90625 0.394531 -1.929688 0.355469 -1.949219 C 0.316406 -1.964844 0.28125 -1.976562 0.242188 -1.984375 C 0.207031 -1.988281 0.175781 -1.992188 0.144531 -1.996094 L 0.144531 -2.140625 L 1.191406 -2.140625 L 1.191406 -1.996094 C 1.148438 -1.992188 1.113281 -1.988281 1.082031 -1.984375 C 1.050781 -1.980469 1.023438 -1.976562 0.996094 -1.96875 C 0.957031 -1.957031 0.925781 -1.9375 0.90625 -1.902344 C 0.886719 -1.867188 0.875 -1.824219 0.875 -1.773438 L 0.875 -1.222656 L 1.828125 -1.222656 L 1.828125 -1.753906 C 1.828125 -1.800781 1.820312 -1.839844 1.800781 -1.875 C 1.777344 -1.90625 1.75 -1.929688 1.707031 -1.949219 C 1.671875 -1.964844 1.632812 -1.976562 1.597656 -1.984375 C 1.5625 -1.988281 1.53125 -1.992188 1.5 -1.996094 L 1.5 -2.140625 L 2.546875 -2.140625 L 2.546875 -1.996094 C 2.503906 -1.992188 2.46875 -1.988281 2.4375 -1.984375 C 2.40625 -1.980469 2.375 -1.976562 2.351562 -1.96875 C 2.308594 -1.957031 2.28125 -1.9375 2.261719 -1.902344 C 2.242188 -1.867188 2.230469 -1.824219 2.230469 -1.773438 L 2.230469 -0.386719 C 2.230469 -0.335938 2.238281 -0.292969 2.257812 -0.261719 C 2.273438 -0.234375 2.304688 -0.207031 2.34375 -0.191406 C 2.375 -0.175781 2.410156 -0.164062 2.445312 -0.160156 C 2.480469 -0.152344 2.515625 -0.144531 2.554688 -0.144531 Z "/>
</g>
<g id="glyph-0-8">
<path d="M 2.183594 -0.0390625 C 2.113281 -0.015625 2.054688 0.00390625 2.003906 0.0195312 C 1.953125 0.0351562 1.894531 0.0429688 1.828125 0.0429688 C 1.714844 0.0429688 1.625 0.015625 1.558594 -0.0351562 C 1.492188 -0.0898438 1.449219 -0.164062 1.429688 -0.265625 L 1.417969 -0.265625 C 1.324219 -0.164062 1.222656 -0.0820312 1.113281 -0.0273438 C 1.007812 0.0273438 0.875 0.0546875 0.726562 0.0546875 C 0.5625 0.0546875 0.433594 0.00390625 0.328125 -0.09375 C 0.226562 -0.191406 0.171875 -0.320312 0.171875 -0.480469 C 0.171875 -0.5625 0.183594 -0.636719 0.207031 -0.699219 C 0.230469 -0.765625 0.265625 -0.824219 0.3125 -0.875 C 0.347656 -0.921875 0.394531 -0.957031 0.457031 -0.992188 C 0.515625 -1.027344 0.570312 -1.054688 0.621094 -1.074219 C 0.6875 -1.097656 0.820312 -1.144531 1.019531 -1.210938 C 1.21875 -1.277344 1.351562 -1.328125 1.421875 -1.367188 L 1.421875 -1.582031 C 1.421875 -1.601562 1.417969 -1.636719 1.410156 -1.691406 C 1.402344 -1.742188 1.382812 -1.792969 1.359375 -1.84375 C 1.328125 -1.894531 1.289062 -1.941406 1.234375 -1.980469 C 1.183594 -2.023438 1.109375 -2.042969 1.011719 -2.042969 C 0.945312 -2.042969 0.882812 -2.03125 0.824219 -2.007812 C 0.769531 -1.984375 0.726562 -1.960938 0.707031 -1.9375 C 0.707031 -1.910156 0.710938 -1.867188 0.726562 -1.808594 C 0.738281 -1.753906 0.746094 -1.703125 0.746094 -1.652344 C 0.746094 -1.601562 0.722656 -1.554688 0.679688 -1.515625 C 0.632812 -1.472656 0.570312 -1.453125 0.488281 -1.453125 C 0.414062 -1.453125 0.363281 -1.476562 0.328125 -1.527344 C 0.292969 -1.578125 0.277344 -1.636719 0.277344 -1.703125 C 0.277344 -1.769531 0.300781 -1.832031 0.347656 -1.890625 C 0.394531 -1.953125 0.457031 -2.007812 0.53125 -2.054688 C 0.597656 -2.09375 0.675781 -2.128906 0.769531 -2.15625 C 0.859375 -2.1875 0.949219 -2.199219 1.039062 -2.199219 C 1.160156 -2.199219 1.265625 -2.191406 1.355469 -2.175781 C 1.449219 -2.160156 1.53125 -2.121094 1.605469 -2.066406 C 1.675781 -2.015625 1.734375 -1.941406 1.773438 -1.851562 C 1.808594 -1.757812 1.828125 -1.640625 1.828125 -1.496094 C 1.828125 -1.289062 1.828125 -1.105469 1.824219 -0.945312 C 1.820312 -0.785156 1.816406 -0.609375 1.816406 -0.421875 C 1.816406 -0.363281 1.824219 -0.320312 1.84375 -0.285156 C 1.863281 -0.253906 1.894531 -0.226562 1.9375 -0.203125 C 1.957031 -0.1875 1.992188 -0.179688 2.039062 -0.179688 C 2.085938 -0.179688 2.132812 -0.179688 2.183594 -0.179688 L 2.183594 -0.0390625 M 1.425781 -1.183594 C 1.300781 -1.148438 1.195312 -1.113281 1.101562 -1.078125 C 1.007812 -1.042969 0.921875 -1 0.84375 -0.949219 C 0.773438 -0.898438 0.714844 -0.839844 0.671875 -0.773438 C 0.628906 -0.707031 0.609375 -0.625 0.609375 -0.53125 C 0.609375 -0.410156 0.640625 -0.324219 0.703125 -0.265625 C 0.765625 -0.210938 0.847656 -0.183594 0.945312 -0.183594 C 1.046875 -0.183594 1.136719 -0.207031 1.214844 -0.257812 C 1.292969 -0.308594 1.359375 -0.367188 1.414062 -0.433594 Z "/>
</g>
<g id="glyph-0-9">
<path d="M 1.554688 -1.125 L 1.554688 -1.984375 L 1.3125 -1.984375 C 1.160156 -1.984375 1.035156 -1.949219 0.933594 -1.878906 C 0.835938 -1.808594 0.785156 -1.703125 0.785156 -1.566406 C 0.785156 -1.421875 0.839844 -1.3125 0.945312 -1.238281 C 1.050781 -1.160156 1.199219 -1.125 1.394531 -1.125 L 1.554688 -1.125 M 0.902344 -1.03125 L 0.902344 -1.046875 C 0.707031 -1.085938 0.5625 -1.148438 0.472656 -1.238281 C 0.386719 -1.332031 0.339844 -1.445312 0.339844 -1.585938 C 0.339844 -1.753906 0.417969 -1.890625 0.570312 -1.988281 C 0.726562 -2.089844 0.921875 -2.140625 1.15625 -2.140625 L 2.273438 -2.140625 L 2.273438 -1.996094 C 2.230469 -1.992188 2.195312 -1.988281 2.164062 -1.984375 C 2.132812 -1.980469 2.105469 -1.976562 2.078125 -1.96875 C 2.039062 -1.957031 2.007812 -1.9375 1.988281 -1.902344 C 1.96875 -1.867188 1.960938 -1.824219 1.960938 -1.773438 L 1.960938 -0.386719 C 1.960938 -0.335938 1.96875 -0.292969 1.984375 -0.261719 C 2.003906 -0.234375 2.03125 -0.207031 2.074219 -0.191406 C 2.105469 -0.175781 2.136719 -0.164062 2.171875 -0.160156 C 2.207031 -0.152344 2.246094 -0.144531 2.28125 -0.144531 L 2.28125 0 L 1.234375 0 L 1.234375 -0.144531 C 1.269531 -0.144531 1.300781 -0.148438 1.335938 -0.152344 C 1.375 -0.15625 1.402344 -0.160156 1.429688 -0.167969 C 1.46875 -0.183594 1.5 -0.203125 1.523438 -0.238281 C 1.546875 -0.269531 1.554688 -0.3125 1.554688 -0.363281 L 1.554688 -0.964844 L 1.464844 -0.964844 C 1.328125 -0.964844 1.226562 -0.941406 1.148438 -0.886719 C 1.074219 -0.835938 1 -0.742188 0.929688 -0.597656 C 0.878906 -0.492188 0.839844 -0.394531 0.804688 -0.304688 C 0.773438 -0.214844 0.742188 -0.113281 0.707031 0 L -0.0273438 0 L -0.0273438 -0.144531 C 0.0078125 -0.148438 0.0390625 -0.152344 0.0664062 -0.15625 C 0.0976562 -0.160156 0.128906 -0.164062 0.164062 -0.171875 C 0.210938 -0.179688 0.25 -0.199219 0.289062 -0.222656 C 0.324219 -0.25 0.355469 -0.292969 0.382812 -0.351562 C 0.398438 -0.386719 0.417969 -0.429688 0.445312 -0.484375 C 0.46875 -0.539062 0.5 -0.601562 0.535156 -0.671875 C 0.582031 -0.765625 0.632812 -0.839844 0.6875 -0.894531 C 0.746094 -0.953125 0.816406 -1 0.902344 -1.03125 Z "/>
</g>
</g>
</defs>
<g fill="rgb(51.372549%, 75.686275%, 40.392157%)" fill-opacity="1">
<use xlink:href="#glyph-0-0" x="30" y="24.074219"/>
<use xlink:href="#glyph-0-1" x="33" y="24.074219"/>
<use xlink:href="#glyph-0-2" x="36" y="24.074219"/>
<use xlink:href="#glyph-0-2" x="39" y="24.074219"/>
<use xlink:href="#glyph-0-3" x="42" y="24.074219"/>
<use xlink:href="#glyph-0-4" x="44" y="24.074219"/>
<use xlink:href="#glyph-0-5" x="46" y="24.074219"/>
<use xlink:href="#glyph-0-1" x="49" y="24.074219"/>
<use xlink:href="#glyph-0-6" x="52" y="24.074219"/>
<use xlink:href="#glyph-0-7" x="55" y="24.074219"/>
<use xlink:href="#glyph-0-8" x="58" y="24.074219"/>
<use xlink:href="#glyph-0-9" x="60" y="24.074219"/>
</g>
</svg>
