<?xml version="1.0" encoding="UTF-8"?>
<svg xmlns="http://www.w3.org/2000/svg" xmlns:xlink="http://www.w3.org/1999/xlink" width="720pt" height="480pt" viewBox="0 0 720 480" version="1.1">
<defs>
<g>
<symbol overflow="visible" id="glyph0-0">
<path style="stroke:none;" d="M 0.65625 2.359375 L 0.65625 -9.390625 L 7.328125 -9.390625 L 7.328125 2.359375 Z M 1.40625 1.609375 L 6.59375 1.609375 L 6.59375 -8.65625 L 1.40625 -8.65625 Z "/>
</symbol>
<symbol overflow="visible" id="glyph0-1">
<path style="stroke:none;" d="M 2.671875 -3.515625 L 6.234375 -3.515625 L 4.453125 -8.140625 Z M -0.078125 0 L -0.078125 -0.6875 L 0.78125 -0.6875 L 4.234375 -9.71875 L 5.328125 -9.71875 L 8.796875 -0.6875 L 9.75 -0.6875 L 9.75 0 L 6.21875 0 L 6.21875 -0.6875 L 7.296875 -0.6875 L 6.484375 -2.828125 L 2.40625 -2.828125 L 1.59375 -0.6875 L 2.65625 -0.6875 L 2.65625 0 Z "/>
</symbol>
<symbol overflow="visible" id="glyph0-2">
<path style="stroke:none;" d=""/>
</symbol>
<symbol overflow="visible" id="glyph0-3">
<path style="stroke:none;" d="M 1.40625 -6.03125 L 9.75 -6.03125 L 9.75 -4.984375 L 1.40625 -4.984375 Z M 1.40625 -3.375 L 9.75 -3.375 L 9.75 -2.328125 L 1.40625 -2.328125 Z "/>
</symbol>
<symbol overflow="visible" id="glyph0-4">
<path style="stroke:none;" d="M 0.578125 -4.078125 L 3.921875 -4.078125 L 3.921875 -3.0625 L 0.578125 -3.0625 Z "/>
</symbol>
<symbol overflow="visible" id="glyph0-5">
<path style="stroke:none;" d="M 1.703125 -7.40625 L 0.96875 -7.40625 L 0.96875 -9.125 C 1.4375 -9.375 1.90625 -9.5625 2.375 -9.6875 C 2.84375 -9.820312 3.304688 -9.890625 3.765625 -9.890625 C 4.773438 -9.890625 5.570312 -9.644531 6.15625 -9.15625 C 6.738281 -8.664062 7.03125 -8 7.03125 -7.15625 C 7.03125 -6.207031 6.367188 -5.070312 5.046875 -3.75 C 4.941406 -3.644531 4.863281 -3.566406 4.8125 -3.515625 L 2.359375 -1.0625 L 6.40625 -1.0625 L 6.40625 -2.265625 L 7.171875 -2.265625 L 7.171875 0 L 0.90625 0 L 0.90625 -0.703125 L 3.859375 -3.65625 C 4.503906 -4.300781 4.960938 -4.894531 5.234375 -5.4375 C 5.515625 -5.988281 5.65625 -6.5625 5.65625 -7.15625 C 5.65625 -7.8125 5.484375 -8.320312 5.140625 -8.6875 C 4.804688 -9.0625 4.335938 -9.25 3.734375 -9.25 C 3.117188 -9.25 2.640625 -9.09375 2.296875 -8.78125 C 1.960938 -8.476562 1.765625 -8.019531 1.703125 -7.40625 Z "/>
</symbol>
<symbol overflow="visible" id="glyph0-6">
<path style="stroke:none;" d="M 1.25 -0.671875 C 1.25 -0.921875 1.332031 -1.128906 1.5 -1.296875 C 1.664062 -1.460938 1.875 -1.546875 2.125 -1.546875 C 2.363281 -1.546875 2.566406 -1.460938 2.734375 -1.296875 C 2.898438 -1.128906 2.984375 -0.921875 2.984375 -0.671875 C 2.984375 -0.429688 2.898438 -0.226562 2.734375 -0.0625 C 2.566406 0.101562 2.363281 0.1875 2.125 0.1875 C 1.875 0.1875 1.664062 0.101562 1.5 -0.0625 C 1.332031 -0.226562 1.25 -0.429688 1.25 -0.671875 Z "/>
</symbol>
<symbol overflow="visible" id="glyph0-7">
<path style="stroke:none;" d="M 6.703125 -9.71875 L 6.703125 -8.65625 L 2.25 -8.65625 L 2.25 -5.859375 C 2.476562 -6.015625 2.742188 -6.128906 3.046875 -6.203125 C 3.347656 -6.285156 3.679688 -6.328125 4.046875 -6.328125 C 5.097656 -6.328125 5.925781 -6.035156 6.53125 -5.453125 C 7.144531 -4.878906 7.453125 -4.085938 7.453125 -3.078125 C 7.453125 -2.046875 7.144531 -1.242188 6.53125 -0.671875 C 5.914062 -0.0976562 5.050781 0.1875 3.9375 0.1875 C 3.5 0.1875 3.046875 0.128906 2.578125 0.015625 C 2.109375 -0.0859375 1.625 -0.25 1.125 -0.46875 L 1.125 -2.359375 L 1.875 -2.359375 C 1.90625 -1.742188 2.097656 -1.269531 2.453125 -0.9375 C 2.804688 -0.613281 3.300781 -0.453125 3.9375 -0.453125 C 4.625 -0.453125 5.148438 -0.675781 5.515625 -1.125 C 5.890625 -1.582031 6.078125 -2.234375 6.078125 -3.078125 C 6.078125 -3.921875 5.894531 -4.566406 5.53125 -5.015625 C 5.164062 -5.460938 4.632812 -5.6875 3.9375 -5.6875 C 3.550781 -5.6875 3.207031 -5.613281 2.90625 -5.46875 C 2.613281 -5.332031 2.351562 -5.117188 2.125 -4.828125 L 1.5625 -4.828125 L 1.5625 -9.71875 Z "/>
</symbol>
<symbol overflow="visible" id="glyph0-8">
<path style="stroke:none;" d="M 4.65625 -3.296875 L 4.65625 -8.453125 L 1.328125 -3.296875 Z M 7.515625 0 L 3.09375 0 L 3.09375 -0.6875 L 4.65625 -0.6875 L 4.65625 -2.59375 L 0.40625 -2.59375 L 0.40625 -3.3125 L 4.671875 -9.890625 L 5.953125 -9.890625 L 5.953125 -3.296875 L 7.8125 -3.296875 L 7.8125 -2.59375 L 5.953125 -2.59375 L 5.953125 -0.6875 L 7.515625 -0.6875 Z "/>
</symbol>
<symbol overflow="visible" id="glyph0-9">
<path style="stroke:none;" d="M 0.484375 1.296875 C 0.890625 0.992188 1.1875 0.640625 1.375 0.234375 C 1.570312 -0.171875 1.671875 -0.660156 1.671875 -1.234375 L 1.671875 -1.484375 L 2.953125 -1.484375 C 2.910156 -0.734375 2.734375 -0.09375 2.421875 0.4375 C 2.109375 0.96875 1.632812 1.425781 1 1.8125 Z M 1.40625 -4.921875 C 1.40625 -5.160156 1.488281 -5.363281 1.65625 -5.53125 C 1.820312 -5.695312 2.03125 -5.78125 2.28125 -5.78125 C 2.519531 -5.78125 2.722656 -5.695312 2.890625 -5.53125 C 3.054688 -5.363281 3.140625 -5.160156 3.140625 -4.921875 C 3.140625 -4.679688 3.054688 -4.472656 2.890625 -4.296875 C 2.722656 -4.128906 2.519531 -4.046875 2.28125 -4.046875 C 2.03125 -4.046875 1.820312 -4.128906 1.65625 -4.296875 C 1.488281 -4.472656 1.40625 -4.679688 1.40625 -4.921875 Z "/>
</symbol>
<symbol overflow="visible" id="glyph0-10">
<path style="stroke:none;" d="M 3.296875 -0.6875 L 5.234375 -0.6875 C 6.015625 -0.6875 6.582031 -0.851562 6.9375 -1.1875 C 7.300781 -1.53125 7.484375 -2.070312 7.484375 -2.8125 C 7.484375 -3.539062 7.304688 -4.070312 6.953125 -4.40625 C 6.597656 -4.75 6.023438 -4.921875 5.234375 -4.921875 L 3.296875 -4.921875 Z M 3.296875 -5.609375 L 4.953125 -5.609375 C 5.660156 -5.609375 6.175781 -5.742188 6.5 -6.015625 C 6.832031 -6.296875 7 -6.726562 7 -7.3125 C 7 -7.90625 6.832031 -8.335938 6.5 -8.609375 C 6.175781 -8.878906 5.660156 -9.015625 4.953125 -9.015625 L 3.296875 -9.015625 Z M 0.734375 0 L 0.734375 -0.6875 L 1.96875 -0.6875 L 1.96875 -9.015625 L 0.734375 -9.015625 L 0.734375 -9.71875 L 5.53125 -9.71875 C 6.507812 -9.71875 7.25 -9.515625 7.75 -9.109375 C 8.25 -8.710938 8.5 -8.113281 8.5 -7.3125 C 8.5 -6.738281 8.320312 -6.28125 7.96875 -5.9375 C 7.625 -5.59375 7.125 -5.378906 6.46875 -5.296875 C 7.289062 -5.191406 7.914062 -4.925781 8.34375 -4.5 C 8.769531 -4.082031 8.984375 -3.519531 8.984375 -2.8125 C 8.984375 -1.84375 8.675781 -1.128906 8.0625 -0.671875 C 7.457031 -0.222656 6.507812 0 5.21875 0 Z "/>
</symbol>
<symbol overflow="visible" id="glyph0-11">
<path style="stroke:none;" d="M 4.234375 -0.453125 C 4.898438 -0.453125 5.394531 -0.816406 5.71875 -1.546875 C 6.050781 -2.273438 6.21875 -3.375 6.21875 -4.84375 C 6.21875 -6.320312 6.050781 -7.425781 5.71875 -8.15625 C 5.394531 -8.882812 4.898438 -9.25 4.234375 -9.25 C 3.566406 -9.25 3.066406 -8.882812 2.734375 -8.15625 C 2.410156 -7.425781 2.25 -6.320312 2.25 -4.84375 C 2.25 -3.375 2.410156 -2.273438 2.734375 -1.546875 C 3.066406 -0.816406 3.566406 -0.453125 4.234375 -0.453125 Z M 4.234375 0.1875 C 3.179688 0.1875 2.359375 -0.253906 1.765625 -1.140625 C 1.171875 -2.023438 0.875 -3.257812 0.875 -4.84375 C 0.875 -6.4375 1.171875 -7.675781 1.765625 -8.5625 C 2.359375 -9.445312 3.179688 -9.890625 4.234375 -9.890625 C 5.296875 -9.890625 6.117188 -9.445312 6.703125 -8.5625 C 7.296875 -7.675781 7.59375 -6.4375 7.59375 -4.84375 C 7.59375 -3.257812 7.296875 -2.023438 6.703125 -1.140625 C 6.117188 -0.253906 5.296875 0.1875 4.234375 0.1875 Z "/>
</symbol>
<symbol overflow="visible" id="glyph0-12">
<path style="stroke:none;" d="M 6.234375 -4.359375 C 5.941406 -4.023438 5.609375 -3.78125 5.234375 -3.625 C 4.859375 -3.46875 4.429688 -3.390625 3.953125 -3.390625 C 2.992188 -3.390625 2.234375 -3.675781 1.671875 -4.25 C 1.117188 -4.832031 0.84375 -5.628906 0.84375 -6.640625 C 0.84375 -7.617188 1.144531 -8.40625 1.75 -9 C 2.351562 -9.59375 3.160156 -9.890625 4.171875 -9.890625 C 5.265625 -9.890625 6.101562 -9.476562 6.6875 -8.65625 C 7.28125 -7.84375 7.578125 -6.675781 7.578125 -5.15625 C 7.578125 -3.457031 7.226562 -2.140625 6.53125 -1.203125 C 5.832031 -0.273438 4.847656 0.1875 3.578125 0.1875 C 3.242188 0.1875 2.882812 0.15625 2.5 0.09375 C 2.125 0.03125 1.738281 -0.0664062 1.34375 -0.203125 L 1.34375 -1.8125 L 2.078125 -1.8125 C 2.128906 -1.375 2.296875 -1.035156 2.578125 -0.796875 C 2.859375 -0.566406 3.238281 -0.453125 3.71875 -0.453125 C 4.5625 -0.453125 5.1875 -0.769531 5.59375 -1.40625 C 6.007812 -2.039062 6.222656 -3.023438 6.234375 -4.359375 Z M 4.125 -9.25 C 3.507812 -9.25 3.035156 -9.023438 2.703125 -8.578125 C 2.378906 -8.128906 2.21875 -7.484375 2.21875 -6.640625 C 2.21875 -5.796875 2.378906 -5.144531 2.703125 -4.6875 C 3.035156 -4.238281 3.507812 -4.015625 4.125 -4.015625 C 4.738281 -4.015625 5.207031 -4.234375 5.53125 -4.671875 C 5.863281 -5.109375 6.03125 -5.738281 6.03125 -6.5625 C 6.03125 -7.425781 5.863281 -8.085938 5.53125 -8.546875 C 5.195312 -9.015625 4.726562 -9.25 4.125 -9.25 Z "/>
</symbol>
</g>
</defs>
<g id="surface1032">
<g style="fill:rgb(100%,100%,100%);fill-opacity:1;">
  <use xlink:href="#glyph0-1" x="30" y="32.375977"/>
  <use xlink:href="#glyph0-2" x="40" y="32.375977"/>
  <use xlink:href="#glyph0-3" x="44" y="32.375977"/>
  <use xlink:href="#glyph0-2" x="55" y="32.375977"/>
  <use xlink:href="#glyph0-4" x="59" y="32.375977"/>
  <use xlink:href="#glyph0-5" x="64" y="32.375977"/>
  <use xlink:href="#glyph0-6" x="72" y="32.375977"/>
  <use xlink:href="#glyph0-7" x="76" y="32.375977"/>
  <use xlink:href="#glyph0-8" x="84" y="32.375977"/>
  <use xlink:href="#glyph0-9" x="92" y="32.375977"/>
  <use xlink:href="#glyph0-2" x="96" y="32.375977"/>
  <use xlink:href="#glyph0-10" x="100" y="32.375977"/>
  <use xlink:href="#glyph0-2" x="110" y="32.375977"/>
  <use xlink:href="#glyph0-3" x="114" y="32.375977"/>
  <use xlink:href="#glyph0-2" x="125" y="32.375977"/>
  <use xlink:href="#glyph0-11" x="129" y="32.375977"/>
  <use xlink:href="#glyph0-6" x="137" y="32.375977"/>
  <use xlink:href="#glyph0-11" x="141" y="32.375977"/>
  <use xlink:href="#glyph0-12" x="149" y="32.375977"/>
</g>
</g>
</svg>
