<?xml version="1.0" encoding="UTF-8"?>
<svg xmlns="http://www.w3.org/2000/svg" xmlns:xlink="http://www.w3.org/1999/xlink" width="720pt" height="480pt" viewBox="0 0 720 480" version="1.1">
<defs>
<g>
<symbol overflow="visible" id="glyph0-0">
<path style="stroke:none;" d="M 0.65625 2.359375 L 0.65625 -9.390625 L 7.328125 -9.390625 L 7.328125 2.359375 Z M 1.40625 1.609375 L 6.59375 1.609375 L 6.59375 -8.65625 L 1.40625 -8.65625 Z "/>
</symbol>
<symbol overflow="visible" id="glyph0-1">
<path style="stroke:none;" d="M 9.390625 -2.578125 C 9.109375 -1.660156 8.628906 -0.96875 7.953125 -0.5 C 7.273438 -0.0390625 6.421875 0.1875 5.390625 0.1875 C 4.753906 0.1875 4.164062 0.078125 3.625 -0.140625 C 3.082031 -0.359375 2.601562 -0.675781 2.1875 -1.09375 C 1.695312 -1.582031 1.332031 -2.132812 1.09375 -2.75 C 0.863281 -3.363281 0.75 -4.0625 0.75 -4.84375 C 0.75 -6.351562 1.179688 -7.570312 2.046875 -8.5 C 2.921875 -9.425781 4.070312 -9.890625 5.5 -9.890625 C 6.03125 -9.890625 6.59375 -9.816406 7.1875 -9.671875 C 7.789062 -9.535156 8.4375 -9.328125 9.125 -9.046875 L 9.125 -6.8125 L 8.390625 -6.8125 C 8.234375 -7.625 7.910156 -8.222656 7.421875 -8.609375 C 6.941406 -9.003906 6.265625 -9.203125 5.390625 -9.203125 C 4.359375 -9.203125 3.570312 -8.832031 3.03125 -8.09375 C 2.5 -7.351562 2.234375 -6.269531 2.234375 -4.84375 C 2.234375 -3.425781 2.5 -2.347656 3.03125 -1.609375 C 3.570312 -0.867188 4.359375 -0.5 5.390625 -0.5 C 6.117188 -0.5 6.71875 -0.671875 7.1875 -1.015625 C 7.65625 -1.367188 7.992188 -1.890625 8.203125 -2.578125 Z "/>
</symbol>
<symbol overflow="visible" id="glyph0-2">
<path style="stroke:none;" d="M 3.8125 -6.921875 L 3.8125 -6.234375 L 2.734375 -6.234375 L 2.734375 -3.53125 L 5.65625 -6.234375 L 4.65625 -6.234375 L 4.65625 -6.921875 L 7.78125 -6.921875 L 7.78125 -6.234375 L 6.59375 -6.234375 L 4.546875 -4.328125 L 7.171875 -0.6875 L 8.171875 -0.6875 L 8.171875 0 L 4.75 0 L 4.75 -0.6875 L 5.75 -0.6875 L 3.671875 -3.53125 L 2.734375 -2.65625 L 2.734375 -0.6875 L 3.8125 -0.6875 L 3.8125 0 L 0.453125 0 L 0.453125 -0.6875 L 1.53125 -0.6875 L 1.53125 -6.234375 L 0.453125 -6.234375 L 0.453125 -6.921875 Z "/>
</symbol>
<symbol overflow="visible" id="glyph0-3">
<path style="stroke:none;" d="M 5.296875 -2.171875 L 5.296875 -3.640625 L 3.765625 -3.640625 C 3.171875 -3.640625 2.726562 -3.507812 2.4375 -3.25 C 2.144531 -3 2 -2.609375 2 -2.078125 C 2 -1.597656 2.144531 -1.210938 2.4375 -0.921875 C 2.738281 -0.640625 3.140625 -0.5 3.640625 -0.5 C 4.140625 -0.5 4.539062 -0.65625 4.84375 -0.96875 C 5.144531 -1.28125 5.296875 -1.679688 5.296875 -2.171875 Z M 6.5 -4.328125 L 6.5 -0.6875 L 7.5625 -0.6875 L 7.5625 0 L 5.296875 0 L 5.296875 -0.75 C 5.035156 -0.425781 4.726562 -0.1875 4.375 -0.03125 C 4.03125 0.113281 3.628906 0.1875 3.171875 0.1875 C 2.398438 0.1875 1.785156 -0.015625 1.328125 -0.421875 C 0.878906 -0.828125 0.65625 -1.378906 0.65625 -2.078125 C 0.65625 -2.796875 0.914062 -3.347656 1.4375 -3.734375 C 1.957031 -4.128906 2.6875 -4.328125 3.625 -4.328125 L 5.296875 -4.328125 L 5.296875 -4.8125 C 5.296875 -5.332031 5.132812 -5.738281 4.8125 -6.03125 C 4.5 -6.320312 4.054688 -6.46875 3.484375 -6.46875 C 3.003906 -6.46875 2.625 -6.359375 2.34375 -6.140625 C 2.0625 -5.921875 1.882812 -5.597656 1.8125 -5.171875 L 1.203125 -5.171875 L 1.203125 -6.578125 C 1.617188 -6.753906 2.019531 -6.882812 2.40625 -6.96875 C 2.800781 -7.0625 3.1875 -7.109375 3.5625 -7.109375 C 4.519531 -7.109375 5.25 -6.867188 5.75 -6.390625 C 6.25 -5.921875 6.5 -5.234375 6.5 -4.328125 Z "/>
</symbol>
<symbol overflow="visible" id="glyph0-4">
<path style="stroke:none;" d="M 1.921875 -0.984375 C 2.003906 -1.160156 2.082031 -1.460938 2.15625 -1.890625 C 2.226562 -2.316406 2.296875 -2.753906 2.359375 -3.203125 C 2.398438 -3.535156 2.421875 -4.132812 2.421875 -5 L 2.421875 -6.234375 L 1.34375 -6.234375 L 1.34375 -6.921875 L 7.984375 -6.921875 L 7.984375 -6.234375 L 6.90625 -6.234375 L 6.90625 -0.6875 L 7.984375 -0.6875 L 7.984375 0 L 4.640625 0 L 4.640625 -0.6875 L 5.71875 -0.6875 L 5.71875 -6.125 L 3.21875 -6.125 L 3.21875 -5 C 3.21875 -4.3125 3.195312 -3.710938 3.15625 -3.203125 C 3.125 -2.835938 3.0625 -2.429688 2.96875 -1.984375 C 2.882812 -1.535156 2.800781 -1.140625 2.71875 -0.796875 C 2.632812 -0.484375 2.457031 -0.238281 2.1875 -0.0625 C 1.925781 0.101562 1.613281 0.1875 1.25 0.1875 C 1.175781 0.1875 1.066406 0.175781 0.921875 0.15625 C 0.785156 0.144531 0.566406 0.09375 0.265625 0 L 0.234375 -0.8125 C 0.566406 -0.675781 0.867188 -0.609375 1.140625 -0.609375 C 1.316406 -0.609375 1.472656 -0.628906 1.609375 -0.671875 C 1.742188 -0.710938 1.847656 -0.816406 1.921875 -0.984375 Z "/>
</symbol>
<symbol overflow="visible" id="glyph0-5">
<path style="stroke:none;" d="M 5.359375 -3.890625 L 5.359375 -6.234375 L 3.84375 -6.234375 C 3.375 -6.234375 3.023438 -6.125 2.796875 -5.90625 C 2.578125 -5.6875 2.46875 -5.40625 2.46875 -5.0625 C 2.46875 -4.71875 2.578125 -4.4375 2.796875 -4.21875 C 3.015625 -4 3.363281 -3.890625 3.84375 -3.890625 Z M 7.703125 -6.921875 L 7.703125 -6.234375 L 6.546875 -6.234375 L 6.546875 -0.6875 L 7.640625 -0.6875 L 7.640625 0 L 4.3125 0 L 4.3125 -0.6875 L 5.359375 -0.6875 L 5.359375 -3.21875 L 4.28125 -3.21875 L 2.296875 0 L 0.421875 0 L 0.421875 -0.6875 L 1.375 -0.6875 L 3 -3.296875 C 2.6875 -3.378906 2.304688 -3.554688 1.859375 -3.828125 C 1.410156 -4.109375 1.1875 -4.5625 1.1875 -5.1875 C 1.1875 -5.695312 1.367188 -6.113281 1.734375 -6.4375 C 2.097656 -6.757812 2.617188 -6.921875 3.296875 -6.921875 Z "/>
</symbol>
<symbol overflow="visible" id="glyph0-6">
<path style="stroke:none;" d="M 2.734375 -3.796875 L 2.734375 -3.125 C 2.734375 -2.289062 2.890625 -1.65625 3.203125 -1.21875 C 3.523438 -0.78125 3.988281 -0.5625 4.59375 -0.5625 C 5.207031 -0.5625 5.671875 -0.804688 5.984375 -1.296875 C 6.304688 -1.785156 6.46875 -2.507812 6.46875 -3.46875 C 6.46875 -4.425781 6.304688 -5.144531 5.984375 -5.625 C 5.671875 -6.113281 5.207031 -6.359375 4.59375 -6.359375 C 3.988281 -6.359375 3.523438 -6.140625 3.203125 -5.703125 C 2.890625 -5.265625 2.734375 -4.628906 2.734375 -3.796875 Z M 1.53125 -6.21875 L 0.390625 -6.21875 L 0.390625 -6.921875 L 2.734375 -6.921875 L 2.734375 -5.84375 C 2.960938 -6.269531 3.257812 -6.585938 3.625 -6.796875 C 3.988281 -7.003906 4.4375 -7.109375 4.96875 -7.109375 C 5.820312 -7.109375 6.515625 -6.769531 7.046875 -6.09375 C 7.585938 -5.425781 7.859375 -4.550781 7.859375 -3.46875 C 7.859375 -2.375 7.585938 -1.488281 7.046875 -0.8125 C 6.515625 -0.144531 5.820312 0.1875 4.96875 0.1875 C 4.4375 0.1875 3.988281 0.0859375 3.625 -0.109375 C 3.257812 -0.316406 2.960938 -0.640625 2.734375 -1.078125 L 2.734375 2.078125 L 3.859375 2.078125 L 3.859375 2.765625 L 0.390625 2.765625 L 0.390625 2.078125 L 1.53125 2.078125 Z "/>
</symbol>
<symbol overflow="visible" id="glyph0-7">
<path style="stroke:none;" d="M 1.390625 -0.671875 C 1.390625 -0.921875 1.472656 -1.128906 1.640625 -1.296875 C 1.804688 -1.460938 2.007812 -1.546875 2.25 -1.546875 C 2.488281 -1.546875 2.691406 -1.460938 2.859375 -1.296875 C 3.035156 -1.128906 3.125 -0.921875 3.125 -0.671875 C 3.125 -0.429688 3.039062 -0.226562 2.875 -0.0625 C 2.707031 0.101562 2.5 0.1875 2.25 0.1875 C 2 0.1875 1.789062 0.101562 1.625 -0.0625 C 1.46875 -0.226562 1.390625 -0.429688 1.390625 -0.671875 Z M 1.390625 -4.921875 C 1.390625 -5.160156 1.472656 -5.363281 1.640625 -5.53125 C 1.804688 -5.695312 2.007812 -5.78125 2.25 -5.78125 C 2.5 -5.78125 2.707031 -5.695312 2.875 -5.53125 C 3.039062 -5.375 3.125 -5.171875 3.125 -4.921875 C 3.125 -4.671875 3.039062 -4.460938 2.875 -4.296875 C 2.707031 -4.128906 2.5 -4.046875 2.25 -4.046875 C 2.007812 -4.046875 1.804688 -4.128906 1.640625 -4.296875 C 1.472656 -4.472656 1.390625 -4.679688 1.390625 -4.921875 Z "/>
</symbol>
<symbol overflow="visible" id="glyph0-8">
<path style="stroke:none;" d=""/>
</symbol>
<symbol overflow="visible" id="glyph0-9">
<path style="stroke:none;" d="M 0.578125 -4.078125 L 3.921875 -4.078125 L 3.921875 -3.0625 L 0.578125 -3.0625 Z "/>
</symbol>
<symbol overflow="visible" id="glyph0-10">
<path style="stroke:none;" d="M 4.234375 -0.453125 C 4.898438 -0.453125 5.394531 -0.816406 5.71875 -1.546875 C 6.050781 -2.273438 6.21875 -3.375 6.21875 -4.84375 C 6.21875 -6.320312 6.050781 -7.425781 5.71875 -8.15625 C 5.394531 -8.882812 4.898438 -9.25 4.234375 -9.25 C 3.566406 -9.25 3.066406 -8.882812 2.734375 -8.15625 C 2.410156 -7.425781 2.25 -6.320312 2.25 -4.84375 C 2.25 -3.375 2.410156 -2.273438 2.734375 -1.546875 C 3.066406 -0.816406 3.566406 -0.453125 4.234375 -0.453125 Z M 4.234375 0.1875 C 3.179688 0.1875 2.359375 -0.253906 1.765625 -1.140625 C 1.171875 -2.023438 0.875 -3.257812 0.875 -4.84375 C 0.875 -6.4375 1.171875 -7.675781 1.765625 -8.5625 C 2.359375 -9.445312 3.179688 -9.890625 4.234375 -9.890625 C 5.296875 -9.890625 6.117188 -9.445312 6.703125 -8.5625 C 7.296875 -7.675781 7.59375 -6.4375 7.59375 -4.84375 C 7.59375 -3.257812 7.296875 -2.023438 6.703125 -1.140625 C 6.117188 -0.253906 5.296875 0.1875 4.234375 0.1875 Z "/>
</symbol>
<symbol overflow="visible" id="glyph0-11">
<path style="stroke:none;" d="M 1.25 -0.671875 C 1.25 -0.921875 1.332031 -1.128906 1.5 -1.296875 C 1.664062 -1.460938 1.875 -1.546875 2.125 -1.546875 C 2.363281 -1.546875 2.566406 -1.460938 2.734375 -1.296875 C 2.898438 -1.128906 2.984375 -0.921875 2.984375 -0.671875 C 2.984375 -0.429688 2.898438 -0.226562 2.734375 -0.0625 C 2.566406 0.101562 2.363281 0.1875 2.125 0.1875 C 1.875 0.1875 1.664062 0.101562 1.5 -0.0625 C 1.332031 -0.226562 1.25 -0.429688 1.25 -0.671875 Z "/>
</symbol>
<symbol overflow="visible" id="glyph0-12">
<path style="stroke:none;" d="M 1.890625 0 L 1.890625 -0.6875 L 3.578125 -0.6875 L 3.578125 -8.765625 L 1.625 -7.5 L 1.625 -8.359375 L 4 -9.890625 L 4.890625 -9.890625 L 4.890625 -0.6875 L 6.59375 -0.6875 L 6.59375 0 Z "/>
</symbol>
</g>
</defs>
<g id="surface622">
<g style="fill:rgb(100%,100%,100%);fill-opacity:1;">
  <use xlink:href="#glyph0-1" x="30" y="32.375977"/>
  <use xlink:href="#glyph0-2" x="40" y="32.375977"/>
  <use xlink:href="#glyph0-3" x="48" y="32.375977"/>
  <use xlink:href="#glyph0-4" x="56" y="32.375977"/>
  <use xlink:href="#glyph0-5" x="64" y="32.375977"/>
  <use xlink:href="#glyph0-6" x="72" y="32.375977"/>
  <use xlink:href="#glyph0-7" x="81" y="32.375977"/>
  <use xlink:href="#glyph0-8" x="85" y="32.375977"/>
  <use xlink:href="#glyph0-9" x="89" y="32.375977"/>
  <use xlink:href="#glyph0-10" x="94" y="32.375977"/>
  <use xlink:href="#glyph0-11" x="102" y="32.375977"/>
  <use xlink:href="#glyph0-10" x="106" y="32.375977"/>
  <use xlink:href="#glyph0-12" x="114" y="32.375977"/>
</g>
</g>
</svg>
