<?xml version="1.0" encoding="UTF-8"?>
<svg xmlns="http://www.w3.org/2000/svg" xmlns:xlink="http://www.w3.org/1999/xlink" width="1920" height="1080" viewBox="0 0 1920 1080">
<defs>
<g>
<g id="glyph-0-0">
<path d="M 3.671875 -1.894531 C 3.671875 -1.53125 3.597656 -1.191406 3.449219 -0.878906 C 3.304688 -0.570312 3.097656 -0.328125 2.839844 -0.152344 C 2.582031 0.0195312 2.300781 0.105469 2.003906 0.105469 C 1.566406 0.105469 1.175781 -0.078125 0.839844 -0.453125 C 0.507812 -0.828125 0.339844 -1.308594 0.339844 -1.894531 C 0.339844 -2.484375 0.507812 -2.964844 0.839844 -3.335938 C 1.175781 -3.710938 1.566406 -3.894531 2.003906 -3.894531 C 2.300781 -3.894531 2.582031 -3.808594 2.839844 -3.636719 C 3.097656 -3.460938 3.300781 -3.21875 3.449219 -2.910156 C 3.597656 -2.601562 3.671875 -2.261719 3.671875 -1.894531 M 3.394531 -1.894531 C 3.394531 -2.339844 3.265625 -2.738281 3.007812 -3.09375 C 2.75 -3.445312 2.414062 -3.621094 2.003906 -3.621094 C 1.621094 -3.621094 1.292969 -3.453125 1.019531 -3.117188 C 0.75 -2.78125 0.613281 -2.371094 0.613281 -1.894531 C 0.613281 -1.386719 0.753906 -0.972656 1.039062 -0.648438 C 1.324219 -0.328125 1.648438 -0.164062 2.003906 -0.164062 C 2.414062 -0.164062 2.75 -0.34375 3.007812 -0.695312 C 3.265625 -1.046875 3.394531 -1.449219 3.394531 -1.894531 Z "/>
</g>
<g id="glyph-0-1">
<path d="M 0.710938 -2.28125 C 1.039062 -2.703125 1.476562 -2.917969 2.027344 -2.917969 C 2.519531 -2.917969 2.90625 -2.769531 3.191406 -2.480469 C 3.476562 -2.1875 3.621094 -1.828125 3.621094 -1.402344 C 3.621094 -0.976562 3.476562 -0.621094 3.183594 -0.328125 C 2.894531 -0.0390625 2.507812 0.105469 2.023438 0.105469 C 1.675781 0.105469 1.378906 0.03125 1.132812 -0.117188 C 0.886719 -0.265625 0.703125 -0.453125 0.589844 -0.683594 C 0.472656 -0.910156 0.417969 -1.238281 0.417969 -1.664062 C 0.417969 -2.261719 0.453125 -2.671875 0.53125 -2.902344 C 0.605469 -3.132812 0.734375 -3.3125 0.914062 -3.445312 C 1.09375 -3.578125 1.351562 -3.640625 1.6875 -3.640625 L 2.3125 -3.640625 C 2.632812 -3.640625 2.816406 -3.707031 2.859375 -3.839844 C 2.886719 -3.914062 2.910156 -3.960938 2.925781 -3.976562 C 2.945312 -3.996094 2.972656 -4.003906 3.015625 -4.003906 C 3.121094 -4.003906 3.171875 -3.949219 3.171875 -3.84375 C 3.171875 -3.722656 3.109375 -3.613281 2.988281 -3.515625 C 2.867188 -3.417969 2.652344 -3.367188 2.34375 -3.367188 L 1.6875 -3.367188 C 1.472656 -3.367188 1.292969 -3.332031 1.152344 -3.257812 C 1.015625 -3.183594 0.914062 -3.078125 0.851562 -2.941406 C 0.789062 -2.808594 0.742188 -2.585938 0.710938 -2.28125 M 0.714844 -1.410156 C 0.714844 -1.09375 0.828125 -0.808594 1.046875 -0.554688 C 1.269531 -0.304688 1.59375 -0.175781 2.023438 -0.175781 C 2.414062 -0.175781 2.730469 -0.296875 2.96875 -0.535156 C 3.203125 -0.773438 3.324219 -1.066406 3.324219 -1.410156 C 3.324219 -1.753906 3.203125 -2.042969 2.96875 -2.28125 C 2.730469 -2.519531 2.414062 -2.640625 2.023438 -2.640625 C 1.625 -2.640625 1.308594 -2.519531 1.074219 -2.28125 C 0.835938 -2.042969 0.714844 -1.753906 0.714844 -1.410156 Z "/>
</g>
<g id="glyph-0-2">
<path d="M 0.515625 -2.542969 L 0.515625 -1.875 C 0.515625 -1.753906 0.472656 -1.691406 0.378906 -1.691406 C 0.289062 -1.691406 0.242188 -1.753906 0.242188 -1.875 L 0.242188 -2.820312 L 2.148438 -2.820312 C 2.269531 -2.820312 2.332031 -2.773438 2.332031 -2.679688 C 2.332031 -2.585938 2.269531 -2.542969 2.148438 -2.542969 L 1.78125 -2.542969 L 1.78125 -1.621094 L 2.527344 -1.621094 C 3.367188 -1.621094 3.789062 -1.363281 3.789062 -0.847656 C 3.789062 -0.621094 3.71875 -0.425781 3.578125 -0.253906 C 3.4375 -0.0859375 3.085938 0 2.527344 0 L 1.347656 0 C 1.226562 0 1.164062 -0.046875 1.164062 -0.136719 C 1.164062 -0.226562 1.226562 -0.273438 1.347656 -0.273438 L 1.507812 -0.273438 L 1.507812 -2.542969 L 0.515625 -2.542969 M 1.78125 -0.273438 L 2.511719 -0.273438 C 2.925781 -0.273438 3.195312 -0.320312 3.320312 -0.417969 C 3.445312 -0.515625 3.507812 -0.65625 3.507812 -0.832031 C 3.507812 -1.027344 3.433594 -1.164062 3.28125 -1.234375 C 3.132812 -1.308594 2.871094 -1.34375 2.503906 -1.34375 L 1.78125 -1.34375 Z "/>
</g>
<g id="glyph-0-3">
<path d="M 3.480469 -1.34375 L 0.691406 -1.34375 C 0.742188 -0.992188 0.890625 -0.707031 1.136719 -0.488281 C 1.386719 -0.273438 1.695312 -0.164062 2.0625 -0.164062 C 2.265625 -0.164062 2.476562 -0.199219 2.703125 -0.265625 C 2.925781 -0.335938 3.109375 -0.421875 3.25 -0.535156 C 3.289062 -0.566406 3.324219 -0.582031 3.355469 -0.582031 C 3.390625 -0.582031 3.421875 -0.570312 3.445312 -0.542969 C 3.472656 -0.515625 3.484375 -0.484375 3.484375 -0.445312 C 3.484375 -0.410156 3.46875 -0.375 3.433594 -0.339844 C 3.328125 -0.230469 3.144531 -0.128906 2.878906 -0.0351562 C 2.613281 0.0585938 2.339844 0.105469 2.0625 0.105469 C 1.589844 0.105469 1.199219 -0.046875 0.886719 -0.351562 C 0.574219 -0.660156 0.417969 -1.03125 0.417969 -1.46875 C 0.417969 -1.863281 0.5625 -2.207031 0.859375 -2.492188 C 1.152344 -2.773438 1.515625 -2.917969 1.949219 -2.917969 C 2.398438 -2.917969 2.765625 -2.769531 3.054688 -2.480469 C 3.34375 -2.1875 3.484375 -1.808594 3.480469 -1.34375 M 3.203125 -1.621094 C 3.148438 -1.921875 3.007812 -2.167969 2.773438 -2.355469 C 2.542969 -2.546875 2.269531 -2.640625 1.949219 -2.640625 C 1.628906 -2.640625 1.355469 -2.546875 1.125 -2.359375 C 0.894531 -2.171875 0.753906 -1.925781 0.695312 -1.621094 L 3.203125 -1.621094 M 1.582031 -3.730469 C 1.582031 -3.65625 1.554688 -3.59375 1.503906 -3.542969 C 1.453125 -3.492188 1.390625 -3.464844 1.316406 -3.464844 C 1.242188 -3.464844 1.179688 -3.492188 1.128906 -3.542969 C 1.078125 -3.597656 1.050781 -3.660156 1.050781 -3.730469 C 1.050781 -3.804688 1.078125 -3.867188 1.128906 -3.917969 C 1.179688 -3.972656 1.242188 -3.996094 1.316406 -3.996094 C 1.390625 -3.996094 1.453125 -3.972656 1.503906 -3.917969 C 1.554688 -3.867188 1.582031 -3.804688 1.582031 -3.730469 M 2.976562 -3.730469 C 2.976562 -3.65625 2.953125 -3.59375 2.898438 -3.542969 C 2.847656 -3.492188 2.785156 -3.464844 2.710938 -3.464844 C 2.636719 -3.464844 2.574219 -3.492188 2.523438 -3.542969 C 2.472656 -3.597656 2.449219 -3.660156 2.449219 -3.730469 C 2.449219 -3.804688 2.472656 -3.867188 2.523438 -3.917969 C 2.574219 -3.972656 2.636719 -3.996094 2.710938 -3.996094 C 2.785156 -3.996094 2.847656 -3.972656 2.898438 -3.917969 C 2.953125 -3.867188 2.976562 -3.804688 2.976562 -3.730469 Z "/>
</g>
<g id="glyph-0-4">
<path d="M 2.164062 -0.273438 L 1.851562 -0.273438 L 0.800781 -2.542969 L 0.789062 -2.542969 L 0.789062 -0.273438 L 1.292969 -0.273438 C 1.414062 -0.273438 1.472656 -0.226562 1.472656 -0.136719 C 1.472656 -0.046875 1.414062 0 1.292969 0 L 0.28125 0 C 0.160156 0 0.101562 -0.046875 0.101562 -0.136719 C 0.101562 -0.226562 0.160156 -0.273438 0.28125 -0.273438 L 0.515625 -0.273438 L 0.515625 -2.542969 L 0.339844 -2.542969 C 0.21875 -2.542969 0.160156 -2.585938 0.160156 -2.679688 C 0.160156 -2.773438 0.21875 -2.820312 0.339844 -2.820312 L 0.972656 -2.820312 L 2.007812 -0.582031 L 3.027344 -2.820312 L 3.660156 -2.820312 C 3.78125 -2.820312 3.84375 -2.773438 3.84375 -2.679688 C 3.84375 -2.585938 3.78125 -2.542969 3.660156 -2.542969 L 3.488281 -2.542969 L 3.488281 -0.273438 L 3.71875 -0.273438 C 3.839844 -0.273438 3.902344 -0.226562 3.902344 -0.136719 C 3.902344 -0.046875 3.839844 0 3.71875 0 L 2.710938 0 C 2.585938 0 2.527344 -0.046875 2.527344 -0.136719 C 2.527344 -0.226562 2.585938 -0.273438 2.710938 -0.273438 L 3.210938 -0.273438 L 3.210938 -2.542969 L 3.195312 -2.542969 Z "/>
</g>
<g id="glyph-0-5">
</g>
<g id="glyph-0-6">
<path d="M 3.492188 -2.261719 L 0.511719 -2.261719 C 0.445312 -2.261719 0.398438 -2.273438 0.371094 -2.300781 C 0.34375 -2.328125 0.328125 -2.359375 0.328125 -2.402344 C 0.328125 -2.441406 0.34375 -2.472656 0.371094 -2.5 C 0.398438 -2.527344 0.445312 -2.539062 0.511719 -2.539062 L 3.492188 -2.539062 C 3.558594 -2.539062 3.605469 -2.527344 3.632812 -2.5 C 3.660156 -2.472656 3.675781 -2.441406 3.675781 -2.398438 C 3.675781 -2.359375 3.660156 -2.328125 3.632812 -2.300781 C 3.605469 -2.273438 3.558594 -2.261719 3.492188 -2.261719 M 3.492188 -1.28125 L 0.511719 -1.28125 C 0.445312 -1.28125 0.398438 -1.296875 0.371094 -1.320312 C 0.34375 -1.34375 0.328125 -1.378906 0.328125 -1.417969 C 0.328125 -1.460938 0.34375 -1.492188 0.371094 -1.519531 C 0.398438 -1.542969 0.445312 -1.554688 0.511719 -1.554688 L 3.492188 -1.554688 C 3.558594 -1.554688 3.605469 -1.542969 3.632812 -1.519531 C 3.660156 -1.492188 3.675781 -1.460938 3.675781 -1.417969 C 3.675781 -1.378906 3.660156 -1.34375 3.632812 -1.320312 C 3.605469 -1.296875 3.558594 -1.28125 3.492188 -1.28125 Z "/>
</g>
<g id="glyph-0-7">
<path d="M 1.183594 -1.726562 C 1.355469 -1.976562 1.527344 -2.164062 1.707031 -2.28125 C 1.886719 -2.402344 2.085938 -2.460938 2.304688 -2.460938 C 2.59375 -2.460938 2.855469 -2.339844 3.078125 -2.097656 C 3.304688 -1.855469 3.417969 -1.558594 3.417969 -1.203125 C 3.417969 -0.875 3.316406 -0.578125 3.109375 -0.308594 C 2.902344 -0.0390625 2.617188 0.0976562 2.257812 0.0976562 C 2.019531 0.0976562 1.796875 0.0234375 1.59375 -0.121094 C 1.386719 -0.265625 1.226562 -0.488281 1.109375 -0.789062 C 0.964844 -1.167969 0.890625 -1.582031 0.890625 -2.039062 C 0.890625 -2.378906 0.960938 -2.699219 1.097656 -2.996094 C 1.203125 -3.222656 1.339844 -3.421875 1.511719 -3.59375 C 1.6875 -3.769531 1.890625 -3.910156 2.121094 -4.019531 C 2.351562 -4.128906 2.601562 -4.183594 2.871094 -4.183594 C 3.054688 -4.183594 3.207031 -4.144531 3.328125 -4.070312 C 3.378906 -4.039062 3.40625 -3.996094 3.40625 -3.941406 C 3.40625 -3.902344 3.394531 -3.871094 3.367188 -3.847656 C 3.34375 -3.820312 3.316406 -3.808594 3.277344 -3.808594 C 3.25 -3.808594 3.214844 -3.820312 3.175781 -3.839844 C 3.089844 -3.882812 2.976562 -3.90625 2.84375 -3.90625 C 2.421875 -3.90625 2.035156 -3.722656 1.6875 -3.359375 C 1.339844 -2.996094 1.164062 -2.566406 1.164062 -2.0625 C 1.164062 -1.992188 1.171875 -1.878906 1.183594 -1.726562 M 1.246094 -1.277344 C 1.328125 -0.882812 1.457031 -0.597656 1.636719 -0.429688 C 1.8125 -0.261719 2.023438 -0.175781 2.261719 -0.175781 C 2.503906 -0.175781 2.714844 -0.269531 2.886719 -0.460938 C 3.058594 -0.652344 3.144531 -0.898438 3.144531 -1.203125 C 3.144531 -1.484375 3.058594 -1.722656 2.882812 -1.90625 C 2.710938 -2.09375 2.515625 -2.1875 2.296875 -2.1875 C 2.085938 -2.1875 1.882812 -2.097656 1.6875 -1.917969 C 1.554688 -1.796875 1.410156 -1.585938 1.246094 -1.277344 Z "/>
</g>
</g>
</defs>
<g fill="rgb(24.705882%, 24.705882%, 24.705882%)" fill-opacity="1">
<use xlink:href="#glyph-0-0" x="30" y="25.549805"/>
<use xlink:href="#glyph-0-1" x="34" y="25.549805"/>
<use xlink:href="#glyph-0-2" x="38" y="25.549805"/>
<use xlink:href="#glyph-0-3" x="42" y="25.549805"/>
<use xlink:href="#glyph-0-4" x="46" y="25.549805"/>
<use xlink:href="#glyph-0-5" x="50" y="25.549805"/>
<use xlink:href="#glyph-0-6" x="54" y="25.549805"/>
<use xlink:href="#glyph-0-5" x="58" y="25.549805"/>
<use xlink:href="#glyph-0-7" x="62" y="25.549805"/>
</g>
</svg>
